<svg xmlns="http://www.w3.org/2000/svg" viewBox="0 0 100 100">
	<path d="M 79.804688 20.712891 C 72.933688 20.712891 67.284172 24.784125 66.701172 29.953125 L 25.667969 29.953125 C 22.542969 29.953125 20 32.494141 20 35.619141 L 20 65.285156 C 20 68.410156 22.542969 70.953125 25.667969 70.953125 L 74.333984 70.953125 C 77.458984 70.953125 80.001953 68.410156 80.001953 65.285156 L 80.001953 40.945312 C 87.167953 40.864312 92.966797 36.361031 92.966797 30.832031 C 92.966797 25.251031 87.061688 20.712891 79.804688 20.712891 z M 79.806641 22.712891 C 85.960641 22.712891 90.96875 26.355031 90.96875 30.832031 C 90.96875 35.309031 85.959641 38.953125 79.806641 38.953125 L 78.285156 38.953125 C 78.020156 38.953125 77.765125 39.058094 77.578125 39.246094 C 76.584125 40.239094 74.671234 41.366641 72.490234 41.806641 C 72.937234 40.620641 73.205078 39.199031 73.205078 37.957031 C 73.205078 37.605031 73.021703 37.281562 72.720703 37.101562 C 70.129703 35.544562 68.644484 33.259984 68.646484 30.833984 L 68.646484 30.832031 C 68.646484 26.354031 73.652641 22.712891 79.806641 22.712891 z M 79.984375 25.955078 C 78.800375 25.955078 77.807953 26.342187 77.001953 27.117188 C 76.195953 27.893187 75.792969 28.853094 75.792969 29.996094 C 75.792969 30.623094 75.936563 31.240656 76.226562 31.847656 C 76.519563 32.424656 76.928172 32.896578 77.451172 33.267578 C 78.162172 33.776578 79.045562 34.03125 80.101562 34.03125 C 81.055562 34.03125 81.973516 33.818531 82.853516 33.394531 L 82.914062 33.365234 L 82.652344 32.636719 L 82.576172 32.677734 C 81.713172 33.078734 80.887656 33.279297 80.097656 33.279297 C 79.254656 33.279297 78.552187 33.078828 77.992188 32.673828 C 77.574187 32.370828 77.249578 31.983625 77.017578 31.515625 C 76.788578 31.016625 76.673828 30.506328 76.673828 29.986328 C 76.673828 29.045328 76.991906 28.256141 77.628906 27.619141 C 78.269906 26.978141 79.059094 26.658203 79.996094 26.658203 C 80.893094 26.658203 81.629078 26.926891 82.205078 27.462891 C 82.785078 27.992891 83.076172 28.671953 83.076172 29.501953 C 83.076172 30.024953 82.958656 30.490437 82.722656 30.898438 C 82.483656 31.313437 82.216828 31.519531 81.923828 31.519531 C 81.714828 31.519531 81.609375 31.393625 81.609375 31.140625 C 81.609375 31.062625 81.612187 30.979625 81.617188 30.890625 C 81.622187 30.801625 81.630531 30.707375 81.644531 30.609375 L 81.964844 27.953125 L 81.199219 27.953125 L 81.128906 28.515625 C 80.781906 28.077625 80.324812 27.857422 79.757812 27.857422 C 79.140812 27.857422 78.628703 28.076625 78.220703 28.515625 C 77.812703 28.943625 77.607422 29.489297 77.607422 30.154297 C 77.607422 30.771297 77.790297 31.279734 78.154297 31.677734 C 78.525297 32.078734 78.988922 32.279297 79.544922 32.279297 C 80.053922 32.279297 80.516641 32.067578 80.931641 31.642578 C 81.086641 32.050578 81.378547 32.255859 81.810547 32.255859 C 82.350547 32.255859 82.821656 31.976922 83.222656 31.419922 C 83.679656 30.788922 83.873641 30.01375 83.806641 29.09375 C 83.758641 28.44175 83.499266 27.806453 83.072266 27.314453 C 82.284266 26.407453 81.254375 25.955078 79.984375 25.955078 z M 79.677734 28.513672 C 80.028734 28.513672 80.328219 28.641484 80.574219 28.896484 C 80.812219 29.151484 80.931641 29.469563 80.931641 29.851562 C 80.931641 30.336562 80.780516 30.760953 80.478516 31.126953 C 80.176516 31.492953 79.826687 31.675781 79.429688 31.675781 C 79.119687 31.675781 78.865922 31.538672 78.669922 31.263672 C 78.473922 30.988672 78.375 30.635984 78.375 30.208984 C 78.375 29.715984 78.497187 29.310141 78.742188 28.994141 C 78.984188 28.674141 79.296734 28.513672 79.677734 28.513672 z M 25.667969 31.953125 L 66.724609 31.953125 C 67.014609 34.016125 68.117141 35.926656 69.869141 37.472656 L 50.746094 53.214844 L 23.984375 32.380859 C 24.490375 32.115859 25.057969 31.953125 25.667969 31.953125 z M 23.128906 32.984375 L 50.447266 54.251953 C 50.537266 54.321953 50.647859 54.355469 50.755859 54.355469 C 50.868859 54.355469 50.980266 54.318188 51.072266 54.242188 L 70.666016 38.111328 C 70.839016 38.239328 71.002547 38.375094 71.185547 38.496094 C 71.110547 39.532094 70.832547 40.677063 70.435547 41.539062 C 70.179547 42.095062 70.247328 42.745328 70.611328 43.236328 C 70.925328 43.660328 71.419547 43.904297 71.935547 43.904297 C 72.010547 43.904297 72.085156 43.899672 72.160156 43.888672 C 74.231156 43.603672 76.396 42.706766 78 41.509766 L 78 65.285156 C 78 66.393156 77.49675 67.374875 76.71875 68.046875 C 76.77875 67.863875 76.731125 67.656531 76.578125 67.519531 L 59.378906 52.150391 C 59.172906 51.966391 58.856875 51.985406 58.671875 52.191406 C 58.487875 52.397406 58.506891 52.711484 58.712891 52.896484 L 75.912109 68.265625 C 76.007109 68.350625 76.125141 68.392578 76.244141 68.392578 C 76.252141 68.392578 76.261531 68.386719 76.269531 68.386719 C 75.706531 68.739719 75.045984 68.951172 74.333984 68.951172 L 25.667969 68.951172 C 24.955969 68.951172 24.295422 68.738719 23.732422 68.386719 C 23.740422 68.386719 23.747859 68.392578 23.755859 68.392578 C 23.874859 68.392578 23.994844 68.350625 24.089844 68.265625 L 41.289062 52.896484 C 41.495063 52.711484 41.512125 52.397406 41.328125 52.191406 C 41.143125 51.985406 40.829047 51.966391 40.623047 52.150391 L 23.423828 67.519531 C 23.270828 67.656531 23.22125 67.863875 23.28125 68.046875 C 22.50225 67.374875 22 66.392156 22 65.285156 L 22 35.619141 C 22 34.583141 22.435906 33.651375 23.128906 32.984375 z"></path>
</svg>