<svg xmlns="http://www.w3.org/2000/svg" viewBox="0 0 100 100">
	<path style="line-height:normal;text-indent:0;text-align:start;text-decoration-line:none;text-decoration-style:solid;text-decoration-color:#000;text-transform:none;block-progression:tb;isolation:auto;mix-blend-mode:normal" d="M 22.027344 18 C 20.398741 18 19 19.278521 19 20.908203 A 1.0001 1.0001 0 0 0 19.027344 21.140625 L 19.388672 22.650391 L 17.027344 37.287109 L 17.876953 37.287109 A 1.0001 1.0001 0 0 0 16.886719 38.15625 A 1.0001 1.0001 0 0 0 16.878906 38.244141 A 1.0001 1.0001 0 0 0 16.876953 38.261719 L 16.871094 38.386719 C 16.854634 38.752389 16.845703 39.142435 16.845703 39.576172 C 16.845703 41.271296 17.721687 42.582701 19 43.390625 L 19 77 L 18 77 A 1.0001 1.0001 0 0 0 17 78 L 17 81 A 1.0001 1.0001 0 0 0 18 82 L 82 82 A 1.0001 1.0001 0 0 0 83 81 L 83 78 A 1.0001 1.0001 0 0 0 82 77 L 80.003906 77 L 80.154297 44 L 79.587891 44 A 1.0001 1.0001 0 0 0 80.042969 43.890625 C 81.580303 43.105117 82.638672 41.563809 82.638672 39.615234 C 82.638672 39.2048 82.631171 38.83344 82.619141 38.396484 A 1.0001 1.0001 0 0 0 82.609375 38.287109 L 80.560547 23.664062 L 80.986328 21.070312 A 1.0001 1.0001 0 0 0 81 20.908203 C 81 19.278521 79.601259 18 77.972656 18 L 22.027344 18 z M 22.027344 20 L 77.972656 20 C 78.563828 20 78.976045 20.425572 78.990234 20.886719 L 78.5625 23.490234 A 1.0001 1.0001 0 0 0 78.558594 23.791016 L 78.587891 24 L 74.501953 24 L 74.5 24 L 67.5 24 L 67.498047 24 L 60.5 24 L 53.5 24 L 46.5 24 L 39.501953 24 L 39.5 24 L 32.5 24 L 25.5 24 L 21.197266 24 L 21.394531 22.771484 A 1.0001 1.0001 0 0 0 21.378906 22.378906 L 21.017578 20.867188 C 21.043869 20.414363 21.445277 20 22.027344 20 z M 21.140625 25 L 25 25 L 25 37.763672 L 25 38 L 18.939453 38 L 20.166016 30.394531 L 21.140625 25 z M 26 25 L 32 25 L 32 37.763672 L 32 38 L 26 38 L 26 37.980469 L 26 25 z M 33 25 L 39 25 L 39 37.763672 L 39 38 L 33.001953 38 C 33.00113 36.086231 33.000063 25.845137 33 25 z M 40.001953 25 L 46 25 L 46 37.763672 L 46 38 L 40.001953 38 A 0.50005 0.50005 0 0 0 40.001953 37.998047 L 40.001953 25 z M 47.001953 25 L 53 25 L 53 37.763672 L 53 38 L 47.001953 38 A 0.50005 0.50005 0 0 0 47.001953 37.998047 L 47.001953 25 z M 54 25 L 60 25 L 60 37.763672 L 60 38 L 54.001953 38 C 54.001126 36.151072 54.000064 25.845137 54 25 z M 61.001953 25 L 66.998047 25 L 66.998047 37.998047 A 0.50005 0.50005 0 0 0 66.998047 38 L 61.001953 38 A 0.50005 0.50005 0 0 0 61.001953 37.998047 L 61.001953 25 z M 68 25 L 74 25 L 74 37.5 A 0.50005 0.50005 0 0 0 74.001953 37.550781 L 74.001953 37.998047 A 0.50005 0.50005 0 0 0 74.001953 38 L 68 38 L 68 37.763672 L 68 25 z M 75.001953 25 L 78.728516 25 L 80.548828 38 L 75.013672 38 C 75.017914 37.843282 75.018693 37.669096 75.025391 37.523438 A 0.50005 0.50005 0 0 0 75.001953 37.349609 L 75.001953 25 z M 18.857422 39 L 25 39 C 25.00001 39.00695 25 39.012131 25 39.019531 C 25 40.627541 23.446041 42 21.986328 42 L 21.433594 42 C 21.28509 42 21.140841 41.977384 20.998047 41.951172 A 1.0001 1.0001 0 0 0 19.535156 41.130859 C 19.220006 40.785106 18.991983 40.346615 18.861328 39.861328 C 18.855425 39.766765 18.845703 39.679761 18.845703 39.576172 C 18.845703 39.365544 18.853155 39.190326 18.857422 39 z M 26.015625 39 L 31.417969 39 A 0.50005 0.50005 0 0 0 31 39.5 L 31 41.396484 C 30.567099 41.770455 30.021919 41.998047 29.390625 41.998047 L 28.939453 41.998047 C 27.3892 41.998047 26.097482 40.679663 26.015625 39 z M 31.591797 39 L 32.001953 39 C 32.001955 39.00059 32.001952 39.018989 32.001953 39.019531 C 32.001895 39.129776 31.985602 39.233247 31.976562 39.339844 A 0.50005 0.50005 0 0 0 31.591797 39 z M 33.015625 39 L 39.001953 39 C 39.001962 39.006256 39.001953 39.010889 39.001953 39.017578 C 39.001953 40.707266 37.927101 41.998047 36.390625 41.998047 L 35.939453 41.998047 C 34.389245 41.998051 33.097485 40.679663 33.015625 39 z M 40.015625 39 L 46.001953 39 C 46.001962 39.006256 46.001953 39.010889 46.001953 39.017578 C 46.001953 40.707266 44.927101 41.998047 43.390625 41.998047 L 42.939453 41.998047 C 41.389213 41.998051 40.097332 40.679743 40.015625 39 z M 47.015625 39 L 53.001953 39 C 53.001954 39.00422 53.001952 39.018989 53.001953 39.019531 C 53.00107 40.708197 51.926469 41.998047 50.390625 41.998047 L 49.939453 41.998047 C 48.389168 41.998047 47.09733 40.679743 47.015625 39 z M 54.015625 39 L 60.001953 39 C 59.998555 40.685842 58.920114 41.998047 57.390625 41.998047 L 56.939453 41.998047 C 55.389318 41.998051 54.097496 40.679579 54.015625 39 z M 61.046875 39 L 66.974609 39 C 66.906567 39.798543 66.644313 40.520361 66.238281 41.042969 C 65.76744 41.648995 65.145793 41.998047 64.394531 41.998047 L 63.943359 41.998047 C 62.515208 41.998041 61.268508 40.72063 61.046875 39 z M 68.015625 39 L 68.417969 39 A 0.50005 0.50005 0 0 0 68.052734 39.269531 C 68.04104 39.179352 68.020135 39.092532 68.015625 39 z M 68.580078 39 L 74.001953 39 L 74.001953 39.017578 C 74.001953 40.707266 72.927101 41.998047 71.390625 41.998047 L 70.939453 41.998047 C 70.196902 41.998049 69.519386 41.68925 69 41.189453 L 69 39.5 A 0.50005 0.50005 0 0 0 68.580078 39 z M 75.033203 39 L 80.626953 39 C 80.631117 39.201931 80.638672 39.412163 80.638672 39.615234 C 80.638672 40.046332 80.577025 40.399994 80.464844 40.705078 C 79.973596 41.48959 79.15532 42 78.248047 42 L 78.050781 42 C 76.5061 42 75.203162 40.697703 75.033203 39 z M 25.498047 40.8125 C 26.165972 42.100721 27.444965 42.998047 28.939453 42.998047 L 29.390625 42.998047 C 29.984081 42.998047 30.522643 42.841148 31 42.583984 L 31 63 L 29.5 63 A 0.50005 0.50005 0 0 0 29 63.5 L 29 69.5 A 0.50005 0.50005 0 0 0 29.5 70 L 65.5 70 A 0.50005 0.50005 0 1 0 65.5 69 L 30 69 L 30 64 L 70 64 L 70 69 L 68.5 69 A 0.50005 0.50005 0 1 0 68.5 70 L 70.5 70 A 0.50005 0.50005 0 0 0 71 69.5 L 71 63.5 A 0.50005 0.50005 0 0 0 70.5 63 L 69 63 L 69 42.433594 C 69.572727 42.783161 70.228574 42.998047 70.939453 42.998047 L 71.390625 42.998047 C 72.860812 42.998047 74.022424 42.094301 74.599609 40.828125 C 75.294 42.11235 76.559592 43 78.050781 43 L 78.158203 43 L 78 77.996094 A 1.0001 1.0001 0 0 0 79 79 L 81 79 L 81 80 L 19 80 L 19 79 L 20 79 A 1.0001 1.0001 0 0 0 20.289062 78.957031 A 0.50005 0.50005 0 0 0 20.5 79 L 69.5 79 A 0.50005 0.50005 0 1 0 69.5 78 L 21 78 L 21 42.953125 C 21.143661 42.971705 21.284836 43 21.433594 43 L 21.986328 43 C 23.435933 43 24.809229 42.112221 25.498047 40.8125 z M 60.591797 40.822266 C 61.279582 42.111956 62.504347 42.998047 63.943359 42.998047 L 64.394531 42.998047 C 65.469269 42.998047 66.400185 42.463474 67.027344 41.65625 C 67.220817 41.407227 67.379074 41.126659 67.517578 40.832031 C 67.654301 41.093786 67.815168 41.336405 68 41.560547 L 68 63 L 66 63 L 66 58.5 A 0.50005 0.50005 0 0 0 65.5 58 L 64 58 L 64 53.5 A 0.50005 0.50005 0 0 0 63.5 53 L 57.5 53 A 0.50005 0.50005 0 0 0 57 53.5 L 57 58 L 56.5 58 A 0.50005 0.50005 0 0 0 56 58.5 L 56 63 L 53.175781 63 C 53.561525 62.426614 53.791016 61.74156 53.791016 61.005859 C 53.791016 59.746468 53.064453 58.714109 52.072266 58.0625 C 52.091366 57.9743 52.160966 57.890427 52.175781 57.794922 C 52.217511 57.525912 52.233616 57.223104 52.228516 56.919922 C 52.223416 56.61674 52.197281 56.316099 52.144531 56.044922 C 52.091771 55.773744 52.060411 55.536465 51.814453 55.289062 A 0.50005 0.50005 0 0 0 51.458984 55.140625 L 48.623047 55.140625 A 0.50005 0.50005 0 0 0 48.267578 55.289062 C 48.022422 55.536383 47.990249 55.773728 47.9375 56.044922 C 47.88475 56.316116 47.858606 56.618751 47.853516 56.921875 C 47.848416 57.224999 47.86452 57.525977 47.90625 57.794922 C 47.92107 57.890402 47.99066 57.974312 48.009766 58.0625 C 47.017218 58.713987 46.291016 59.746072 46.291016 61.005859 C 46.291016 61.74156 46.52045 62.426674 46.90625 63 L 44 63 L 44 58.5 A 0.50005 0.50005 0 0 0 43.5 58 L 43 58 L 43 53.5 A 0.50005 0.50005 0 0 0 42.5 53 L 35.5 53 A 0.50005 0.50005 0 0 0 35 53.5 L 35 58 L 34.5 58 A 0.50005 0.50005 0 0 0 34 58.5 L 34 63 L 32 63 L 32 41.794922 C 32.223989 41.537185 32.401266 41.23722 32.554688 40.921875 C 33.237855 42.151211 34.487238 42.998047 35.939453 42.998047 L 36.390625 42.998047 C 37.824116 42.998047 38.962994 42.138051 39.554688 40.921875 C 40.237855 42.151211 41.487238 42.998047 42.939453 42.998047 L 43.390625 42.998047 C 44.824116 42.998047 45.962993 42.138051 46.554688 40.921875 C 47.237855 42.151211 48.487238 42.998047 49.939453 42.998047 L 50.390625 42.998047 C 51.824116 42.998047 52.962993 42.138051 53.554688 40.921875 C 54.237855 42.151211 55.487238 42.998047 56.939453 42.998047 L 57.390625 42.998047 C 58.858377 42.998047 60.013324 42.088264 60.591797 40.822266 z M 36 54 L 42 54 L 42 58 L 36 58 L 36 54 z M 58 54 L 63 54 L 63 58 L 58 58 L 58 54 z M 48.941406 56.140625 L 51.140625 56.140625 C 51.159725 56.187565 51.149423 56.161088 51.164062 56.236328 C 51.201152 56.426963 51.224236 56.682432 51.228516 56.9375 C 51.232816 57.192568 51.21718 57.449323 51.1875 57.640625 C 51.15782 57.831927 51.061829 57.968063 51.144531 57.876953 A 0.50005 0.50005 0 0 0 51.291016 58.660156 C 52.184521 59.104356 52.791016 59.982168 52.791016 61.005859 C 52.791016 61.735235 52.487132 62.389407 51.990234 62.871094 A 0.50069488 0.50069488 0 0 0 51.894531 63 L 48.1875 63 A 0.50005 0.50005 0 0 0 48.089844 62.871094 C 47.593519 62.390807 47.291016 61.735235 47.291016 61.005859 C 47.291016 59.980733 47.896414 59.104478 48.791016 58.660156 A 0.50005 0.50005 0 0 0 48.9375 57.876953 C 49.02012 57.967973 48.924201 57.831833 48.894531 57.640625 C 48.864861 57.449413 48.849236 57.192501 48.853516 56.9375 C 48.857816 56.682499 48.880879 56.427041 48.917969 56.236328 C 48.932499 56.161618 48.922366 56.187585 48.941406 56.140625 z M 35 59 L 43 59 L 43 63 L 35 63 L 35 59 z M 57 59 L 65 59 L 65 63 L 57 63 L 57 59 z M 71.5 78 A 0.50005 0.50005 0 1 0 71.5 79 A 0.50005 0.50005 0 1 0 71.5 78 z M 74.5 78 A 0.50005 0.50005 0 1 0 74.5 79 L 75.5 79 A 0.50005 0.50005 0 1 0 75.5 78 L 74.5 78 z"></path>
</svg>