<svg xmlns="http://www.w3.org/2000/svg" viewBox="0 0 100 100">
	<path d="M 34.960938 13.267578 C 31.651937 13.267578 28.960938 15.958578 28.960938 19.267578 L 28.960938 80.267578 C 28.960938 83.576578 31.651937 86.267578 34.960938 86.267578 L 63.960938 86.267578 C 67.268937 86.267578 69.960938 83.575578 69.960938 80.267578 L 69.960938 29.267578 L 70.710938 29.267578 C 71.399938 29.267578 71.960938 28.706578 71.960938 28.017578 L 71.960938 22.517578 C 71.960938 21.828578 71.399937 21.267578 70.710938 21.267578 L 69.960938 21.267578 L 69.960938 19.267578 C 69.960938 15.958578 67.269937 13.267578 63.960938 13.267578 L 34.960938 13.267578 z M 34.960938 15.267578 L 63.960938 15.267578 C 66.166938 15.267578 67.960938 17.061578 67.960938 19.267578 L 67.960938 22.517578 L 67.960938 28.017578 L 67.960938 80.267578 C 67.960938 82.473578 66.166938 84.267578 63.960938 84.267578 L 34.960938 84.267578 C 32.754937 84.267578 30.960938 82.473578 30.960938 80.267578 L 30.960938 19.267578 C 30.960938 17.061578 32.754937 15.267578 34.960938 15.267578 z M 45.414062 18.269531 C 45.164062 18.269531 44.960938 18.472656 44.960938 18.722656 L 44.960938 18.814453 C 44.960938 19.064453 45.164062 19.267578 45.414062 19.267578 L 53.505859 19.267578 C 53.755859 19.267578 53.961937 19.063453 53.960938 18.814453 L 53.960938 18.722656 C 53.960938 18.472656 53.755859 18.269531 53.505859 18.269531 L 45.414062 18.269531 z M 34.460938 22.267578 C 34.184938 22.267578 33.960938 22.491578 33.960938 22.767578 L 33.960938 53.767578 C 33.960938 54.043578 34.184937 54.267578 34.460938 54.267578 C 34.736937 54.267578 34.960938 54.043578 34.960938 53.767578 L 34.960938 23.267578 L 60.460938 23.267578 C 60.736938 23.267578 60.960938 23.043578 60.960938 22.767578 C 60.960937 22.491578 60.736938 22.267578 60.460938 22.267578 L 34.460938 22.267578 z M 64.460938 22.267578 C 64.184937 22.267578 63.960938 22.491578 63.960938 22.767578 L 63.960938 25.767578 C 63.960938 26.043578 64.184938 26.267578 64.460938 26.267578 C 64.736938 26.267578 64.960938 26.043578 64.960938 25.767578 L 64.960938 22.767578 C 64.960938 22.491578 64.736937 22.267578 64.460938 22.267578 z M 69.960938 22.267578 L 70.710938 22.267578 C 70.846937 22.267578 70.960938 22.381578 70.960938 22.517578 L 70.960938 28.017578 C 70.960938 28.153578 70.846937 28.267578 70.710938 28.267578 L 69.960938 28.267578 L 69.960938 22.267578 z M 38.607422 26.267578 C 37.699422 26.267578 36.960938 27.005109 36.960938 27.912109 L 36.960938 31.621094 C 36.960938 32.529094 37.699422 33.267578 38.607422 33.267578 L 42.314453 33.267578 C 43.221453 33.267578 43.960938 32.528094 43.960938 31.621094 L 43.960938 27.912109 C 43.960938 27.004109 43.222453 26.267578 42.314453 26.267578 L 38.607422 26.267578 z M 47.607422 26.267578 C 46.699422 26.267578 45.960938 27.005109 45.960938 27.912109 L 45.960938 31.621094 C 45.960938 32.529094 46.699422 33.267578 47.607422 33.267578 L 51.314453 33.267578 C 52.221453 33.267578 52.960938 32.528094 52.960938 31.621094 L 52.960938 27.912109 C 52.960938 27.004109 52.222453 26.267578 51.314453 26.267578 L 47.607422 26.267578 z M 56.607422 26.267578 C 55.699422 26.267578 54.960938 27.005109 54.960938 27.912109 L 54.960938 31.621094 C 54.960938 32.529094 55.699422 33.267578 56.607422 33.267578 L 60.314453 33.267578 C 61.221453 33.267578 61.960938 32.528094 61.960938 31.621094 L 61.960938 27.912109 C 61.960938 27.004109 61.222453 26.267578 60.314453 26.267578 L 56.607422 26.267578 z M 38.607422 27.267578 L 42.314453 27.267578 C 42.670453 27.267578 42.960938 27.559062 42.960938 27.914062 L 42.960938 31.623047 C 42.960938 31.979047 42.670453 32.269531 42.314453 32.269531 L 38.607422 32.269531 C 38.251422 32.269531 37.960938 31.978047 37.960938 31.623047 L 37.960938 27.914062 C 37.960938 27.558062 38.251422 27.267578 38.607422 27.267578 z M 47.607422 27.267578 L 51.314453 27.267578 C 51.670453 27.267578 51.960938 27.559062 51.960938 27.914062 L 51.960938 31.623047 C 51.960938 31.979047 51.670453 32.269531 51.314453 32.269531 L 47.607422 32.269531 C 47.251422 32.269531 46.960938 31.978047 46.960938 31.623047 L 46.960938 27.914062 C 46.960938 27.558062 47.251422 27.267578 47.607422 27.267578 z M 56.607422 27.267578 L 60.314453 27.267578 C 60.670453 27.267578 60.960938 27.559062 60.960938 27.914062 L 60.960938 31.623047 C 60.960938 31.979047 60.670453 32.269531 60.314453 32.269531 L 56.607422 32.269531 C 56.251422 32.269531 55.960938 31.978047 55.960938 31.623047 L 55.960938 27.914062 C 55.960938 27.558062 56.251422 27.267578 56.607422 27.267578 z M 64.560547 27.28125 C 64.464297 27.261375 64.361484 27.268594 64.271484 27.308594 C 64.211484 27.327594 64.151328 27.367969 64.111328 27.417969 C 64.011328 27.508969 63.960938 27.637578 63.960938 27.767578 C 63.960938 27.897578 64.011328 28.027188 64.111328 28.117188 C 64.151328 28.166187 64.211484 28.207516 64.271484 28.228516 C 64.331484 28.258516 64.390938 28.267578 64.460938 28.267578 C 64.590938 28.267578 64.719547 28.217187 64.810547 28.117188 C 64.910547 28.027187 64.960938 27.897578 64.960938 27.767578 C 64.960938 27.637578 64.910547 27.508969 64.810547 27.417969 C 64.745547 27.348469 64.656797 27.301125 64.560547 27.28125 z M 64.460938 31.267578 C 64.184937 31.267578 63.960938 31.491578 63.960938 31.767578 L 63.960938 72.267578 L 34.960938 72.267578 L 34.960938 63.767578 C 34.960938 63.491578 34.736938 63.267578 34.460938 63.267578 C 34.184938 63.267578 33.960938 63.491578 33.960938 63.767578 L 33.960938 72.767578 C 33.960938 73.043578 34.184937 73.267578 34.460938 73.267578 L 64.460938 73.267578 C 64.736938 73.267578 64.960938 73.043578 64.960938 72.767578 L 64.960938 31.767578 C 64.960938 31.491578 64.736937 31.267578 64.460938 31.267578 z M 38.607422 35.267578 C 37.699422 35.267578 36.960938 36.005109 36.960938 36.912109 L 36.960938 40.621094 C 36.960938 41.529094 37.699422 42.267578 38.607422 42.267578 L 42.314453 42.267578 C 43.221453 42.267578 43.960938 41.528094 43.960938 40.621094 L 43.960938 36.912109 C 43.960938 36.004109 43.222453 35.267578 42.314453 35.267578 L 38.607422 35.267578 z M 47.607422 35.267578 C 46.699422 35.267578 45.960938 36.005109 45.960938 36.912109 L 45.960938 40.621094 C 45.960938 41.529094 46.699422 42.267578 47.607422 42.267578 L 51.314453 42.267578 C 52.221453 42.267578 52.960938 41.528094 52.960938 40.621094 L 52.960938 36.912109 C 52.960938 36.004109 52.222453 35.267578 51.314453 35.267578 L 47.607422 35.267578 z M 56.607422 35.267578 C 55.699422 35.267578 54.960938 36.005109 54.960938 36.912109 L 54.960938 40.621094 C 54.960938 41.529094 55.699422 42.267578 56.607422 42.267578 L 60.314453 42.267578 C 61.221453 42.267578 61.960938 41.528094 61.960938 40.621094 L 61.960938 36.912109 C 61.960938 36.004109 61.222453 35.267578 60.314453 35.267578 L 56.607422 35.267578 z M 38.607422 36.267578 L 42.314453 36.267578 C 42.670453 36.267578 42.960938 36.559063 42.960938 36.914062 L 42.960938 40.623047 C 42.960938 40.979047 42.670453 41.269531 42.314453 41.269531 L 38.607422 41.269531 C 38.251422 41.269531 37.960938 40.978047 37.960938 40.623047 L 37.960938 36.914062 C 37.960938 36.558062 38.251422 36.267578 38.607422 36.267578 z M 47.607422 36.267578 L 51.314453 36.267578 C 51.670453 36.267578 51.960938 36.559063 51.960938 36.914062 L 51.960938 40.623047 C 51.960938 40.979047 51.670453 41.269531 51.314453 41.269531 L 47.607422 41.269531 C 47.251422 41.269531 46.960938 40.978047 46.960938 40.623047 L 46.960938 36.914062 C 46.960938 36.558062 47.251422 36.267578 47.607422 36.267578 z M 56.607422 36.267578 L 60.314453 36.267578 C 60.670453 36.267578 60.960938 36.559063 60.960938 36.914062 L 60.960938 40.623047 C 60.960938 40.979047 60.670453 41.269531 60.314453 41.269531 L 56.607422 41.269531 C 56.251422 41.269531 55.960938 40.978047 55.960938 40.623047 L 55.960938 36.914062 C 55.960938 36.558062 56.251422 36.267578 56.607422 36.267578 z M 34.460938 59.267578 C 34.184938 59.267578 33.960938 59.491578 33.960938 59.767578 L 33.960938 61.767578 C 33.960938 62.043578 34.184937 62.267578 34.460938 62.267578 C 34.736937 62.267578 34.960938 62.043578 34.960938 61.767578 L 34.960938 59.767578 C 34.960938 59.491578 34.736938 59.267578 34.460938 59.267578 z M 48.960938 75.267578 C 47.306938 75.267578 45.960938 76.613578 45.960938 78.267578 C 45.960938 79.921578 47.306938 81.267578 48.960938 81.267578 C 50.614938 81.267578 51.960938 79.921578 51.960938 78.267578 C 51.960938 76.613578 50.614937 75.267578 48.960938 75.267578 z M 48.960938 76.267578 C 50.063938 76.267578 50.960938 77.164578 50.960938 78.267578 C 50.960937 79.370578 50.063938 80.267578 48.960938 80.267578 C 47.857937 80.267578 46.960938 79.370578 46.960938 78.267578 C 46.960938 77.164578 47.857937 76.267578 48.960938 76.267578 z"></path>
</svg>