<svg xmlns="http://www.w3.org/2000/svg" xmlns:xlink="http://www.w3.org/1999/xlink" viewBox="0 0 48 48" version="1.1">
    <g id="surface1">
        <path style=" fill:#6D4C41;" d="M 43 22 C 43 22 41.699219 19.199219 39.199219 16.101563 C 39.601563 14.601563 40.300781 11.699219 39.800781 8.199219 C 39.300781 4.601563 37.800781 4 36.800781 4 C 36.199219 4 35.800781 4.199219 35.800781 4.199219 L 30 9.101563 C 28.199219 8.398438 26.199219 8 24 8 C 21.800781 8 19.800781 8.398438 18 9.101563 L 12.101563 4.199219 C 12.101563 4.199219 11.699219 4 11.101563 4 C 10.101563 4 8.5 4.601563 8.101563 8.199219 C 7.601563 11.699219 8.300781 14.601563 8.699219 16.101563 C 6.300781 19.199219 5 22 5 22 L 8 22 L 6 26 L 10.898438 25.800781 L 24 25 L 37.101563 25.800781 L 42 26 L 40 22 Z "></path>
        <path style=" fill:#A1887F;" d="M 33.101563 10.601563 L 36.800781 6 C 37.199219 6 37.601563 6.800781 37.800781 8.5 C 38.101563 10.898438 37.800781 12.898438 37.5 14.300781 C 36.300781 13 34.800781 11.699219 33.101563 10.601563 Z M 14.898438 10.601563 L 11.199219 6 C 10.800781 6 10.398438 6.800781 10.199219 8.5 C 9.898438 10.898438 10.199219 12.898438 10.5 14.300781 C 11.699219 13 13.199219 11.699219 14.898438 10.601563 Z "></path>
        <path style=" fill:#BCAAA4;" d="M 30 20 C 25.898438 20 24 23 24 23 C 24 23 22.101563 20 18 20 C 13.898438 20 8 25.800781 7 30 C 7 30 13.398438 30.101563 15 32 C 16.601563 33.898438 18 41 18 41 C 18 41 18.601563 44 24 44 C 29.398438 44 30 41 30 41 C 30 41 31.398438 33.898438 33 32 C 34.601563 30.101563 41 30 41 30 C 40 25.800781 34.101563 20 30 20 Z "></path>
        <path style=" fill:#6D4C41;" d="M 23 41 L 25 41 L 25 43 L 23 43 Z "></path>
        <path style=" fill:#5D4037;" d="M 21 29 C 21 29 18.300781 29 17 29 C 13.800781 29 14.101563 24 14.101563 24 C 14.101563 24 16.699219 24 18 24 C 21.199219 24 21 29 21 29 Z M 27 29 C 27 29 29.699219 29 31 29 C 34.199219 29 33.898438 24 33.898438 24 C 33.898438 24 31.300781 24 30 24 C 26.800781 24 27 29 27 29 Z "></path>
        <path style=" fill:#3E2723;" d="M 28.601563 42.898438 C 27.800781 44.101563 26.101563 45 24 45 C 21.898438 45 20.199219 44.101563 19.398438 42.898438 C 19.601563 43 19.800781 43 20 43 L 28 43 C 28.199219 43 28.398438 42.898438 28.601563 42.898438 Z M 27 38 C 27 37.398438 26.601563 37 26 37 L 22 37 C 21.398438 37 21 37.398438 21 38 L 21 40 C 21 40.601563 22.398438 42 23 42 L 25 42 C 25.601563 42 27 40.601563 27 40 Z "></path>
        <path style=" fill:#EEFF41;" d="M 19.699219 27.101563 C 19.300781 27.601563 18.699219 28 18 28 C 16.898438 28 16 27.101563 16 26 C 16 25.5 16.199219 25 16.601563 24.601563 C 17.898438 25.199219 18.898438 26.199219 19.699219 27.101563 Z M 28.300781 27.101563 C 28.699219 27.601563 29.300781 28 30 28 C 31.101563 28 32 27.101563 32 26 C 32 25.5 31.800781 25 31.398438 24.601563 C 30.101563 25.199219 29.101563 26.199219 28.300781 27.101563 Z "></path>
        <path style=" fill:#212121;" d="M 18.898438 26.300781 C 18.800781 26.699219 18.398438 27 18 27 C 17.398438 27 17 26.601563 17 26 C 17 25.601563 17.199219 25.300781 17.5 25.101563 C 18 25.5 18.5 25.898438 18.898438 26.300781 Z M 30.5 25.101563 C 30 25.5 29.5 25.898438 29.101563 26.300781 C 29.199219 26.699219 29.601563 27 30 27 C 30.601563 27 31 26.601563 31 26 C 31 25.601563 30.800781 25.300781 30.5 25.101563 Z "></path>
    </g>
</svg>