<svg xmlns="http://www.w3.org/2000/svg" xmlns:xlink="http://www.w3.org/1999/xlink" viewBox="0 0 48 48" version="1.1">
    <g id="surface1">
        <path style=" fill:#FF9800;" d="M 29.761719 37.058594 C 29.894531 37.011719 29.988281 37.011719 30.003906 37.007813 C 30.003906 37.007813 30.007813 37.007813 30.011719 37.007813 C 30.011719 37.007813 30.011719 37.007813 30.113281 37.007813 L 41.046875 36.023438 C 41.046875 36.023438 39.011719 34.542969 38.261719 33.710938 C 38.257813 33.710938 38.257813 33.707031 38.253906 33.703125 C 38.246094 33.695313 38.242188 33.691406 38.238281 33.6875 L 38.238281 33.679688 C 38.070313 33.5 37.96875 33.261719 37.972656 32.996094 C 37.972656 32.65625 38.15625 32.371094 38.421875 32.191406 L 38.421875 32.167969 L 43 28 L 38.023438 27 C 37.46875 26.992188 37.027344 26.542969 37.03125 25.988281 C 37.03125 25.789063 38.046875 23 38.046875 23 L 33.050781 24 C 32.496094 23.992188 32.054688 23.5 32.058594 22.945313 C 32.0625 22.734375 32.144531 22.546875 32.257813 22.386719 L 32.25 22.367188 L 40 12.019531 C 40 12.019531 37 12 35.988281 12 C 35.046875 12 35 11 35 11 L 35 4 L 29.296875 8.839844 C 29.296875 8.839844 28.597656 9.316406 27.953125 8.628906 C 27.316406 7.9375 24.953125 5 24.953125 5 L 20.921875 17.808594 L 20.902344 17.8125 C 20.84375 18.003906 20.75 18.183594 20.582031 18.3125 C 20.148438 18.660156 19.519531 18.585938 19.175781 18.152344 L 17 13 C 17 13 15.222656 16.683594 15.0625 16.804688 C 14.628906 17.148438 13.90625 16.953125 13.65625 16.644531 L 10 13 L 9.117188 18.925781 L 9.101563 18.941406 C 9.121094 19.257813 9.011719 19.578125 8.742188 19.792969 C 8.535156 19.957031 8.285156 20.019531 8.039063 20 L 8.035156 20.003906 C 8.027344 20.003906 8.023438 20 8.015625 20 C 8.011719 20 5 20 5 20 L 10.800781 28.597656 C 10.804688 28.601563 10.804688 28.605469 10.804688 28.605469 C 10.8125 28.617188 10.867188 28.691406 10.917969 28.824219 C 11.09375 29.230469 11.003906 29.714844 10.640625 30.003906 C 9.855469 30.625 8 32 8 32 L 19 35 L 29 41 C 29 41 28.992188 39 29 38 C 29.003906 37.535156 29.332031 37.164063 29.761719 37.058594 Z "></path>
        <path style=" fill:#EF6C00;" d="M 31 27 C 30.605469 28.601563 30.164063 29.816406 29.957031 31.023438 C 29.851563 31.625 29.789063 32.203125 29.800781 32.839844 C 29.796875 33.480469 29.894531 34.160156 30 35 C 29.222656 34.664063 28.632813 34.015625 28.273438 33.226563 C 27.921875 32.4375 27.828125 31.515625 27.988281 30.671875 C 28.140625 29.820313 28.515625 29.046875 29.027344 28.410156 C 29.550781 27.785156 30.1875 27.253906 31 27 Z "></path>
        <path style=" fill:#EF6C00;" d="M 14 28 C 15.574219 27.394531 16.828125 26.96875 17.722656 26.261719 C 18.164063 25.914063 18.546875 25.507813 18.90625 24.960938 C 19.273438 24.417969 19.578125 23.753906 20 23 C 20.414063 23.757813 20.535156 24.621094 20.378906 25.507813 C 20.222656 26.382813 19.703125 27.269531 18.941406 27.84375 C 18.1875 28.429688 17.269531 28.695313 16.410156 28.710938 C 15.546875 28.710938 14.703125 28.515625 14 28 Z "></path>
        <path style=" fill:#EF6C00;" d="M 14 21 C 15.019531 22.523438 16.164063 23.847656 17.441406 25.027344 C 18.074219 25.621094 18.742188 26.171875 19.417969 26.710938 C 20.101563 27.222656 20.828125 27.742188 21.503906 28.160156 L 21.4375 28.125 C 22.109375 28.445313 22.785156 28.765625 23.441406 29.117188 L 23.367188 29.085938 C 24.15625 29.390625 25.15625 29.601563 26.085938 29.789063 C 27.039063 29.960938 28.007813 30.066406 28.988281 30.140625 C 29.964844 30.191406 30.960938 30.230469 31.960938 30.191406 C 32.960938 30.164063 33.96875 30.085938 35 30 C 34.078125 30.472656 33.101563 30.820313 32.09375 31.097656 C 31.089844 31.363281 30.050781 31.558594 29.003906 31.632813 C 27.953125 31.726563 26.890625 31.710938 25.832031 31.601563 C 24.753906 31.5 23.753906 31.300781 22.632813 30.914063 L 22.625 30.910156 L 22.558594 30.882813 C 21.882813 30.566406 21.222656 30.222656 20.5625 29.875 L 20.511719 29.851563 L 20.496094 29.839844 C 19.648438 29.300781 18.945313 28.726563 18.253906 28.074219 C 17.5625 27.441406 16.933594 26.746094 16.359375 26.003906 C 15.785156 25.265625 15.289063 24.464844 14.878906 23.628906 C 14.472656 22.792969 14.160156 21.898438 14 21 Z "></path>
        <path style=" fill:#E65100;" d="M 8.742188 41.199219 C 11.175781 39.632813 23 34 31 12 C 25 35 13.054688 41.667969 10.414063 43.691406 C 9.757813 44.195313 8.8125 44.070313 8.308594 43.410156 C 7.804688 42.753906 7.929688 41.808594 8.589844 41.304688 C 8.621094 41.28125 8.652344 41.257813 8.6875 41.238281 Z "></path>
    </g>
</svg>