<svg xmlns="http://www.w3.org/2000/svg" xmlns:xlink="http://www.w3.org/1999/xlink" viewBox="0 0 48 48" version="1.1">
    <g id="surface1">
        <path style=" fill:#CDDC39;" d="M 37 14 C 36.980469 14 36.964844 14.003906 36.945313 14.003906 L 36.945313 13.988281 C 36.421875 13.960938 36 13.53125 36 13 C 36 12.292969 36.535156 12.0625 36.535156 12.0625 C 37.46875 11.238281 38 9.957031 38 8.5 C 38 6.015625 35.984375 4 33.5 4 C 31.148438 4 29 5.390625 29 7.5 C 29 8.453125 28.328125 9 27.5 9 C 27.109375 9 26.757813 8.847656 26.488281 8.601563 C 25.695313 8.132813 24.652344 8 23.5 8 C 21.015625 8 19 10.015625 19 12.5 C 19 14.140625 19.929688 15.558594 19.921875 15.566406 C 19.980469 15.695313 20.019531 15.839844 20.019531 15.988281 C 20.019531 16.546875 19.570313 17 19.011719 17 C 18.949219 17 18.898438 16.976563 18.84375 16.96875 C 18.832031 16.980469 18.820313 16.996094 18.808594 17.011719 C 18.554688 17.003906 18.289063 17 18 17 C 15.789063 17 14 18.789063 14 21 C 14 23 15.632813 24.507813 15.625 24.519531 C 15.855469 24.78125 16 25.125 16 25.5 C 16 26.328125 15.328125 27 14.5 27 C 14.496094 27 14.496094 27 14.496094 27 C 12.5625 27.003906 11 28.566406 11 30.5 C 11 33 14.066406 36 16 36 C 16 37 18.707031 39 22.5 39 C 24.433594 39 26 37.433594 26 35.5 C 26.011719 35.449219 26 35.121094 26 35 C 26 33.894531 26.894531 33 28 33 C 28.167969 33 29.675781 33 30.5 33 C 32.984375 33 35 30.984375 35 28.5 C 35 27.453125 34.628906 26.503906 34.03125 25.738281 C 33.625 25.1875 33 24.753906 33 24 C 33 22.898438 33.894531 22 35 22 C 35.042969 22 35.085938 22.011719 35.128906 22.015625 C 35.132813 22.011719 35.140625 22 35.140625 22 C 35.433594 22.003906 35.6875 22 36 22 C 38.210938 22 40 20.210938 40 18 C 40 15.789063 38 14 37 14 Z "></path>
        <path style=" fill:#AFB42B;" d="M 26 14 C 26.425781 14.917969 26.816406 15.746094 27.304688 16.429688 C 27.785156 17.113281 28.320313 17.605469 28.9375 17.902344 C 29.222656 18.03125 29.65625 18.167969 30.046875 18.292969 C 30.449219 18.410156 30.855469 18.523438 31.273438 18.617188 C 32.109375 18.804688 32.972656 18.953125 34 19 C 33.289063 19.792969 32.222656 20.152344 31.1875 20.25 C 30.660156 20.296875 30.128906 20.269531 29.613281 20.175781 C 29.09375 20.078125 28.609375 19.960938 28.046875 19.675781 C 26.964844 19.121094 26.222656 18.085938 25.929688 17.058594 C 25.644531 16.019531 25.640625 14.964844 26 14 Z "></path>
        <path style=" fill:#AFB42B;" d="M 20 20 C 20.445313 21.28125 20.957031 22.445313 21.601563 23.457031 C 22.257813 24.460938 23.039063 25.285156 23.988281 25.851563 C 24.980469 26.414063 26.109375 26.914063 27.265625 27.28125 C 28.429688 27.632813 29.636719 27.917969 31 28.003906 C 29.832031 28.773438 28.355469 28.972656 26.964844 28.859375 C 25.554688 28.722656 24.191406 28.308594 22.9375 27.539063 C 21.648438 26.742188 20.703125 25.460938 20.234375 24.113281 C 19.761719 22.765625 19.652344 21.328125 20 20 Z "></path>
        <path style=" fill:#AFB42B;" d="M 16 30 C 17.335938 31.035156 18.308594 31.964844 19.375 32.761719 C 19.902344 33.164063 20.433594 33.535156 21.019531 33.890625 C 21.601563 34.257813 22.242188 34.574219 23 35 C 21.46875 35.820313 19.503906 35.398438 18.160156 34.351563 C 17.476563 33.835938 16.933594 33.164063 16.546875 32.425781 C 16.175781 31.683594 15.925781 30.871094 16 30 Z "></path>
        <path style=" fill:#9E9D24;" d="M 8.742188 40.199219 C 11.175781 38.632813 22 33 32 11 C 25 33 13.054688 40.667969 10.414063 42.691406 C 9.757813 43.195313 8.8125 43.070313 8.308594 42.410156 C 7.804688 41.753906 7.929688 40.808594 8.589844 40.304688 C 8.621094 40.28125 8.652344 40.257813 8.6875 40.238281 Z "></path>
    </g>
</svg>