<svg xmlns="http://www.w3.org/2000/svg" xmlns:xlink="http://www.w3.org/1999/xlink" version="1.1" id="Слой_1" x="0px" y="0px" viewBox="0 0 64 64" style="enable-background:new 0 0 64 64;" xml:space="preserve">
<linearGradient id="SVGID_1__44034" gradientUnits="userSpaceOnUse" x1="20.5451" y1="5.8542" x2="20.5451" y2="21.1048" spreadMethod="reflect">
	<stop offset="0" style="stop-color:#6DC7FF"></stop>
	<stop offset="1" style="stop-color:#E6ABFF"></stop>
</linearGradient>
<path style="fill:url(#SVGID_1__44034);" d="M23.041,19.315l-8.319-8.319c-0.919-0.919-0.919-2.409,0-3.328l0,0  c0.919-0.919,2.409-0.919,3.328,0l8.319,8.319c0.919,0.919,0.919,2.409,0,3.328l0,0C25.449,20.234,23.96,20.234,23.041,19.315z"></path>
<linearGradient id="SVGID_2__44034" gradientUnits="userSpaceOnUse" x1="50.4933" y1="35.9792" x2="50.4933" y2="50.4879" spreadMethod="reflect">
	<stop offset="0" style="stop-color:#6DC7FF"></stop>
	<stop offset="1" style="stop-color:#E6ABFF"></stop>
</linearGradient>
<path style="fill:url(#SVGID_2__44034);" d="M52.989,49.263l-8.319-8.319c-0.919-0.919-0.919-2.409,0-3.328l0,0  c0.919-0.919,2.409-0.919,3.328,0l8.319,8.319c0.919,0.919,0.919,2.409,0,3.328v0C55.398,50.182,53.908,50.182,52.989,49.263z"></path>
<linearGradient id="SVGID_3__44034" gradientUnits="userSpaceOnUse" x1="32" y1="4.9792" x2="32" y2="60.5811" spreadMethod="reflect">
	<stop offset="0" style="stop-color:#1A6DFF"></stop>
	<stop offset="1" style="stop-color:#C822FF"></stop>
</linearGradient>
<path style="fill:url(#SVGID_3__44034);" d="M57.024,45.228l-8.319-8.318c-1.267-1.268-3.476-1.268-4.742,0l-5.461,5.461  c-0.414,0.414-1.047,0.523-1.543,0.269c-6.831-3.529-12.084-8.782-15.613-15.613c-0.255-0.495-0.146-1.129,0.268-1.542l5.462-5.462  c1.308-1.308,1.308-3.435,0-4.742l-8.319-8.318c-1.267-1.268-3.476-1.268-4.742,0l-4.942,4.941  c-3.409,3.409-4.059,8.633-1.58,12.702c8.013,13.148,18.741,23.877,31.887,31.886c1.652,1.008,3.494,1.498,5.328,1.498  c2.683,0,5.349-1.052,7.374-3.077l4.94-4.939c0,0,0.002-0.001,0.003-0.002C58.331,48.663,58.331,46.536,57.024,45.228z   M47.29,38.324l8.319,8.318c0.528,0.527,0.528,1.387,0,1.914c-0.527,0.526-1.386,0.526-1.914,0l-8.319-8.319  c-0.527-0.527-0.527-1.386,0-1.913C45.888,37.812,46.78,37.812,47.29,38.324z M17.342,8.376l8.319,8.318  c0.528,0.527,0.528,1.387,0,1.914c-0.527,0.525-1.386,0.527-1.914,0l-8.319-8.319c-0.527-0.527-0.527-1.386,0-1.913  C15.939,7.864,16.831,7.864,17.342,8.376z M50.667,53.498c-2.754,2.757-6.968,3.283-10.247,1.286  c-12.871-7.843-23.375-18.347-31.22-31.22c-1.998-3.278-1.469-7.492,1.286-10.247l2.777-2.776c0.163,0.423,0.41,0.821,0.751,1.162  l8.319,8.319c0.341,0.341,0.739,0.588,1.162,0.751L20.2,24.069c-1.039,1.038-1.292,2.595-0.631,3.875  c3.723,7.207,9.265,12.749,16.473,16.473c0.475,0.245,0.987,0.364,1.498,0.364c0.865,0,1.723-0.343,2.376-0.995l3.297-3.297  c0.163,0.423,0.41,0.821,0.751,1.162l8.319,8.319c0.341,0.341,0.739,0.588,1.162,0.751L50.667,53.498z"></path>
</svg>