<svg xmlns="http://www.w3.org/2000/svg" xmlns:xlink="http://www.w3.org/1999/xlink" version="1.1" id="Слой_1" x="0px" y="0px" viewBox="0 0 64 64" style="enable-background:new 0 0 64 64;" xml:space="preserve">
<linearGradient id="SVGID_1__47298" gradientUnits="userSpaceOnUse" x1="32" y1="31.5" x2="32" y2="50.933" spreadMethod="reflect">
	<stop offset="0" style="stop-color:#6DC7FF"></stop>
	<stop offset="1" style="stop-color:#E6ABFF"></stop>
</linearGradient>
<rect x="31" y="32" style="fill:url(#SVGID_1__47298);" width="2" height="18"></rect>
<linearGradient id="SVGID_2__47298" gradientUnits="userSpaceOnUse" x1="32" y1="6.5" x2="32" y2="58.5024" spreadMethod="reflect">
	<stop offset="0" style="stop-color:#1A6DFF"></stop>
	<stop offset="1" style="stop-color:#C822FF"></stop>
</linearGradient>
<path style="fill:url(#SVGID_2__47298);" d="M58,23c0-2.757-2.243-5-5-5H41.459C42.414,16.937,43,15.538,43,14c0-3.309-2.691-6-6-6  c-2.086,0-3.925,1.071-5,2.69C30.925,9.071,29.086,8,27,8c-3.309,0-6,2.691-6,6c0,1.538,0.586,2.937,1.541,4H11  c-2.757,0-5,2.243-5,5v5h4v23c0,2.757,2.243,5,5,5h34c2.757,0,5-2.243,5-5V28h4V23z M29,26v-6h2h2h2v6H29z M35,28v26h-6V28H35z   M37,10c2.206,0,4,1.794,4,4s-1.794,4-4,4h-4v-4C33,11.794,34.794,10,37,10z M23,14c0-2.206,1.794-4,4-4s4,1.794,4,4v4h-4  C24.794,18,23,16.206,23,14z M8,23c0-1.654,1.346-3,3-3h16v6H8V23z M12.184,52H19v-2h-7v-2h3v-2h-3V28h15v26H15  C13.698,54,12.598,53.162,12.184,52z M52,46h-3v2h3v2h-7v2h6.816c-0.414,1.162-1.514,2-2.816,2H37V28h15V46z M56,26H37v-6h16  c1.654,0,3,1.346,3,3V26z"></path>
<linearGradient id="SVGID_3__47298" gradientUnits="userSpaceOnUse" x1="37" y1="11.75" x2="37" y2="16.6674" spreadMethod="reflect">
	<stop offset="0" style="stop-color:#6DC7FF"></stop>
	<stop offset="1" style="stop-color:#E6ABFF"></stop>
</linearGradient>
<path style="fill:url(#SVGID_3__47298);" d="M37,16h-2v-2c0-1.105,0.895-2,2-2h0c1.105,0,2,0.895,2,2v0C39,15.105,38.105,16,37,16z"></path>
<linearGradient id="SVGID_4__47298" gradientUnits="userSpaceOnUse" x1="27" y1="11.75" x2="27" y2="16.6674" spreadMethod="reflect">
	<stop offset="0" style="stop-color:#6DC7FF"></stop>
	<stop offset="1" style="stop-color:#E6ABFF"></stop>
</linearGradient>
<path style="fill:url(#SVGID_4__47298);" d="M29,16h-2c-1.105,0-2-0.895-2-2v0c0-1.105,0.895-2,2-2h0c1.105,0,2,0.895,2,2V16z"></path>
</svg>