<svg xmlns="http://www.w3.org/2000/svg" xmlns:xlink="http://www.w3.org/1999/xlink" version="1.1" id="Layer_1" x="0px" y="0px" viewBox="0 0 48 48" style="enable-background:new 0 0 48 48;" xml:space="preserve">
<style type="text/css">
	.st0{fill:#E65100;}
	.st1{fill:#4E342E;}
	.st2{fill:#FFD740;}
	.st3{fill:#FFAB40;}
</style>
<path class="st0" d="M20.8,8.4C22.2,7.9,24,6,28.2,6S44,10.1,44,23.9C44,36.6,34.5,43,27.2,43c-2.1,0-3.2-1-4.2-1s-1.1,1-3.2,1  C16.7,43,4,38.2,4,25.3c0,0-1.3-14.3,9.5-16.1C17.4,8.6,19.5,8.9,20.8,8.4z"></path>
<path class="st1" d="M21,2c0,0-3,1-3,4s-1,4-1,4s0,1,3,1s4-2,4-2s-4-1-4-3s2-2,2-2s1,0,1-1s-1-1-1-1H21z"></path>
<polygon class="st2" points="26,20 32,12 35,16 33,19 "></polygon>
<polygon class="st3" points="32,12 30.9,13.5 33,16 30.6,19.3 33,19 35,16 "></polygon>
<polygon class="st2" points="20,20 14,15 11,18 13,20 "></polygon>
<polygon class="st3" points="13,18 15.4,16.2 14,15 11,18 13,20 15,20 "></polygon>
<polygon class="st2" points="20,23 26,23 23,26 "></polygon>
<path class="st2" d="M38,17c2,6,1,10,1,10c0-2-2-4-2-4c1,2-1,7-1,7c0-2-2-4-2-4c0,5-2,7-2,7c-1-3-4-5-4-5c0,3-1,5-1,5s-2-2-3-4  c-1,2-1,5-1,5s-3-4-3-5c-1,1-2,3-2,4c0,0-3-2-3-6c-1,1-2,3-2,4c0,0-1-2-1-6c-2,2-2,3.6-2,4c-0.1-0.3-0.1-0.3,0,0c0,0-2-2-1-9  c-1,1-2,4.1-2,6c0,5,2,8,5,11c0-2,1-3,1-3s0,2,3,4c0-1,1-2,1-2c0.7,1.8,2,3,2,3c0-1,1-3,1-3s2,2.2,3,3c0-2,1-3,1-3  c0.4,0.9,1.4,2.3,2,3c0-1.6,1-3,1-3s0.8,1.2,2,2c0,0,1-1.5,1-3c0,0,1.3,0.9,2,2c0,0,1-1,2-3c0,0,0.7,1,1,2c1-1,2-3,2-5c0,0,1,2,1,3  c1-1,3-4,3-8S40.1,19,38,17z"></path>
<path class="st3" d="M12,25.1C12,25,12,25,12,25.1C12,25,12,25,12,25.1C12,25.1,12,25.1,12,25.1z"></path>
<path class="st3" d="M15.4,34.8C15.1,34.4,15,34.1,15,34h-2c0,0,0,2,3,4c0-1,1-2,1-2C17,36,15.9,35.4,15.4,34.8z"></path>
<path class="st3" d="M19,39c0-1,1-3,1-3h-3C17.7,37.8,19,39,19,39z"></path>
<path class="st3" d="M41,26c0-4-0.9-7-3-9c2,6,1,10,1,10c0-0.1-0.2,1.5-0.6,2.4c-0.2,0.7-0.7,1.7-1.1,2.4c0.3,0.7,0.7,1.6,0.7,2.3  C39,33,41,30,41,26z"></path>
<path class="st3" d="M28,35c0,0-0.2,1-0.6,1.6c0.4,0.4,0.9,1,1.6,1.4c0,0,1-1.5,1-3H28z"></path>
<path class="st3" d="M22,36h-2c0,0,2,2.2,3,3c0-0.8,0.2-1.4,0.4-1.9C22.5,36.5,22.1,36.1,22,36z"></path>
<path class="st3" d="M27,36h-3c0.4,0.9,1.4,2.3,2,3C26,37.4,27,36,27,36z"></path>
<path class="st3" d="M37,31h-2c0,1.9-1,3-1,3s0.7,1,1,2C37.1,33.7,37,31,37,31z"></path>
<path class="st3" d="M11.2,33c-1.3-1.8-2.1-3.7-2.2-6.3c-0.3-1.4-0.5-3.5,0-6.7c-1,1-2,4.1-2,6c0,5,2,8,5,11c0-1.1,0.3-1.9,0.6-2.4  C12.3,34.3,11.6,33.5,11.2,33z"></path>
<path class="st3" d="M30.7,35.5c0.4,0.4,1,0.9,1.3,1.5c0,0,1-1,2-3h-2C31.9,34.2,31.4,34.9,30.7,35.5z"></path>
</svg>