<svg xmlns="http://www.w3.org/2000/svg" xmlns:xlink="http://www.w3.org/1999/xlink" version="1.1" id="Layer_1" x="0px" y="0px" viewBox="0 0 48 48" style="enable-background:new 0 0 48 48;" xml:space="preserve">
<g id="surface1">
	<rect x="23" y="11.9" style="fill:#1565C0;" width="2" height="24.2"></rect>
	
		<rect x="23" y="11.6" transform="matrix(0.4878 -0.8729 0.8729 0.4878 -8.6587 33.2418)" style="fill:#1565C0;" width="2" height="24.7"></rect>
	
		<rect x="11.6" y="23" transform="matrix(0.8729 -0.488 0.488 0.8729 -8.6599 14.7623)" style="fill:#1565C0;" width="24.7" height="2"></rect>
	<path style="fill:#1565C0;" d="M24,36.5l-4.7-4.5l-6.5-1.7l1.7-6.3l-1.7-6.3l6.5-1.7l4.7-4.5l4.7,4.5l6.5,1.7L33.4,24l1.7,6.3   l-6.5,1.7L24,36.5z M15.3,28.8l5,1.3l3.7,3.6l3.7-3.6l5-1.3L31.3,24l1.3-4.8l-5-1.3L24,14.3l-3.7,3.6l-5,1.3l1.3,4.8L15.3,28.8z"></path>
	<rect x="23" y="35" style="fill:#2196F3;" width="2" height="9"></rect>
	<rect x="23" y="4" style="fill:#2196F3;" width="2" height="9"></rect>
	
		<rect x="36.8" y="27" transform="matrix(0.4939 -0.8695 0.8695 0.4939 -8.4175 48.9053)" style="fill:#2196F3;" width="2" height="9.4"></rect>
	
		<rect x="9.1" y="11.7" transform="matrix(0.4879 -0.8729 0.8729 0.4879 -8.9978 17.1076)" style="fill:#2196F3;" width="2" height="9.1"></rect>
	
		<rect x="5.5" y="30.7" transform="matrix(0.8729 -0.4879 0.4879 0.8729 -14.157 9.0282)" style="fill:#2196F3;" width="9.4" height="2"></rect>
	
		<rect x="33.1" y="15.3" transform="matrix(0.8729 -0.4879 0.4879 0.8729 -3.1419 20.5122)" style="fill:#2196F3;" width="9.3" height="2"></rect>
	<polygon style="fill:#2196F3;" points="24,14.3 17.7,8.2 19.1,6.8 24,11.5 28.9,6.8 30.3,8.2  "></polygon>
	<polygon style="fill:#2196F3;" points="28.9,41.2 24,36.5 19.1,41.2 17.7,39.8 24,33.7 30.3,39.8  "></polygon>
	<polygon style="fill:#2196F3;" points="6.7,21.4 6.2,19.5 12.8,17.7 11.1,11.3 13,10.7 15.3,19.2  "></polygon>
	<polygon style="fill:#2196F3;" points="35,37.3 32.7,28.8 41.3,26.6 41.8,28.5 35.2,30.3 36.9,36.7  "></polygon>
	<polygon style="fill:#2196F3;" points="41.3,21.4 32.7,19.2 35,10.7 36.9,11.3 35.2,17.7 41.8,19.5  "></polygon>
	<polygon style="fill:#2196F3;" points="13,37.3 11.1,36.7 12.8,30.3 6.2,28.5 6.7,26.6 15.3,28.8  "></polygon>
</g>
</svg>